<svg xmlns="http://www.w3.org/2000/svg" xml:space="preserve" width="240" height="240" viewBox="0 0 63.5 63.5"><path d="M3.685-491.77c15.363-.084 30.255 11.669 33.546 26.932.062.286.156.75.212 1.037 1.258 6.375 2.19 16.888-6.279 17.6a8.686 8.686 0 0 1-1.056.009c-8.88-.567-5.953-10.477-7.824-16.492a24.663 24.663 0 0 0-.347-1c-3.05-8.265-11.768-13.763-20.54-13.072-.292.023-.764.038-1.056.027-11.568-.438-24.413 1.972-34.537-5.026-.24-.166-.635-.427-.872-.598-2.663-1.926-8.45-8.398-5.049-9.304.282-.075.758-.088 1.05-.088 13.894 0 27.795.007 41.666-.016.292 0 .293.012.001.029-2.856.162-2.71.15.028 0 .291-.017.765-.036 1.057-.037z" style="display:inline;fill:#d65d0e;fill-opacity:1;stroke-width:.95924" transform="matrix(-.32285 0 0 .32285 32.35 173.883)"/><path d="M6.157-446.235c9.654-1.657 4.45-14.228-1.37-14.962-.289-.037-.764-.033-1.056-.031-21.072.093-42.148-.174-63.215.158-.292.005-.764.03-1.054.062-8.6.934-18.309 5.406-20.88 14.271-.081.28.098.51.39.511 28.713.012 57.425-.04 86.132.067.292 0 .53.002.53.002z" style="display:inline;fill:#ebdbb2;fill-opacity:1;stroke-width:.95924" transform="matrix(-.32285 0 0 .32285 32.35 173.883)"/><path d="M.036-388.709c-15.363.085-30.255-11.668-33.546-26.932-.062-.285-.155-.75-.212-1.036-1.258-6.375-2.19-16.888 6.279-17.6a8.686 8.686 0 0 1 1.057-.009c8.878.567 5.952 10.477 7.824 16.491.086.28.245.726.346 1 3.05 8.266 11.768 13.764 20.54 13.073.292-.023.764-.038 1.056-.027 11.568.438 24.413-1.972 34.537 5.026.24.166.635.427.872.598 2.663 1.926 8.45 8.398 5.049 9.304-.282.075-.758.088-1.05.088-13.894 0-27.795-.007-41.666.016-.292 0-.293-.012-.001-.029 2.856-.162 2.71-.15-.027 0a25.9 25.9 0 0 1-1.058.037z" style="display:inline;fill:#d65d0e;fill-opacity:1;stroke-width:.95924" transform="matrix(-.32285 0 0 .32285 32.35 173.883)"/><path d="M-2.436-434.244c-9.778 1.668-6.114 14.398 1.368 14.976.292.023.766.02 1.058.018 21.073-.093 42.148.174 63.215-.158.292-.005.764-.03 1.055-.062 8.6-.934 18.308-5.406 20.88-14.271.08-.281-.099-.511-.391-.511-28.713-.012-57.424.04-86.132-.067-.292 0-.529-.002-.529-.002z" style="display:inline;fill:#ebdbb2;fill-opacity:1;stroke-width:.95924" transform="matrix(-.32285 0 0 .32285 32.35 173.883)"/></svg>